HIERARCHY
ROOT pelvis
{
	OFFSET 0.000000 0.000000 0.000000
	CHANNELS 6 Xposition Yposition Zposition Zrotation Xrotation Yrotation
	JOINT lfemur
	{
		OFFSET 11.446000 0.000000 0.000000
		CHANNELS 3 Zrotation Xrotation Yrotation
		JOINT ltibia
		{
			OFFSET 0.000000 -42.030400 0.000000
			CHANNELS 3 Zrotation Xrotation Yrotation
			JOINT lfoot
			{
				OFFSET 0.000000 -39.930200 0.000000
				CHANNELS 3 Zrotation Xrotation Yrotation
				JOINT ltoes
				{
					OFFSET 0.000000 0.000000 11.775800
					CHANNELS 3 Zrotation Xrotation Yrotation
					End Site
					{
					    OFFSET 0.000000 0.000000 5.000000
					}
				}
			}
		}
	}
	JOINT rfemur
	{
		OFFSET -11.446000 0.000000 0.000000
		CHANNELS 3 Zrotation Xrotation Yrotation
		JOINT rtibia
		{
			OFFSET 0.000000 -42.030400 0.000000
			CHANNELS 3 Zrotation Xrotation Yrotation
			JOINT rfoot
			{
				OFFSET 0.000000 -39.930200 0.000000
				CHANNELS 3 Zrotation Xrotation Yrotation
				JOINT rtoes
				{
					OFFSET 0.000000 0.000000 11.775800
					CHANNELS 3 Zrotation Xrotation Yrotation
					End Site
					{
					    OFFSET 0.000000 0.000000 5.000000
					}
				}
			}
		}
	}
	JOINT thorax
	{
		OFFSET 0.000000 11.255600 -5.000000
		CHANNELS 3 Zrotation Xrotation Yrotation
		JOINT head
		{
			OFFSET 0.000000 43.799300 0.000000
			CHANNELS 3 Zrotation Xrotation Yrotation
			End Site
			{
			    OFFSET 0.000000 5.000000 0.000000
			}
		}
		JOINT lclavicle
		{
			OFFSET 0.000000 39.863000 0.000000
			CHANNELS 3 Zrotation Xrotation Yrotation
			JOINT lhumerus
			{
				OFFSET 17.380600 4.958300 0.000000
				CHANNELS 3 Zrotation Xrotation Yrotation
				JOINT lradius
				{
					OFFSET 0.000000 -27.561300 0.000000
					CHANNELS 3 Zrotation Xrotation Yrotation
					JOINT lhand
					{
						OFFSET 0.000000 -26.933000 0.000000
						CHANNELS 3 Zrotation Xrotation Yrotation
						End Site
						{
						    OFFSET 0.000000 -5.000000 0.000000
						}
					}
				}
			}
		}
		JOINT rclavicle
		{
			OFFSET 0.000000 39.863000 0.000000
			CHANNELS 3 Zrotation Xrotation Yrotation
			JOINT rhumerus
			{
				OFFSET -17.380600 4.958300 0.000000
				CHANNELS 3 Zrotation Xrotation Yrotation
				JOINT rradius
				{
					OFFSET 0.000000 -27.561300 0.000000
					CHANNELS 3 Zrotation Xrotation Yrotation
					JOINT rhand
					{
						OFFSET 0.000000 -26.933000 0.000000
						CHANNELS 3 Zrotation Xrotation Yrotation
						End Site
						{
						    OFFSET 0.000000 -5.000000 0.000000
						}
					}
				}
			}
		}
	}
}
MOTION
Frames: 20
Frame Time:	0.0333333
81.3319 86.2782 -1.32911 3.41882 1.57426 -6.94784 -3.14746 -13.1631 0.644423 0.129013 27.7764 -0.347689 1.27805 -3.78766 3.97998 -4.96962e-016 -5 -0 -3.78925 -29.1162 -10.0734 -0.719808 55.4575 0.823123 -1.28882 -4.76365 -8.49272 -1.86854e-015 -5 -3.1927e-015 -2.54255 9.15485 -2.23139 5.29486 -5.19391 -10.7726 1.98785e-016 -1.59028e-015 -0 14.8907 -13.1523 -17.533 14.0595 -21.3824 5.80348 -0.0821075 -1.13881 -8.13247 1.98785e-016 -1.59028e-015 -0 -5.20446 -5.29464 9.68002 -16.686 -24.617 -7.32089 0.0905714 -1.19541 8.54075 
80.7172 86.1819 1.05497 3.79081 1.94244 -8.1207 -3.46401 -11.3428 0.548517 0.124587 27.2052 -0.346884 1.43467 -4.86222 6.04994 8.99487e-016 -5 1.19726e-015 -3.91164 -31.0211 -10.1545 -0.448942 47.4118 0.561861 -1.18693 -2.99207 -9.46699 -0 -5 -0 -3.01685 9.00734 -2.33095 5.69638 -5.15827 -10.9693 7.95139e-016 0 -0 16.2065 -14.7615 -18.3204 14.4924 -21.9325 6.04602 -0.093092 -1.21279 -8.6654 7.95139e-016 0 -0 -4.85833 -4.58265 9.3144 -16.8122 -24.7658 -7.39641 0.0932518 -1.21367 8.67172 
80.1359 86.2539 3.48407 4.75673 2.4475 -9.04822 -4.12342 -9.00444 1.44729 0.1077 25.0428 -0.336956 1.47698 -5.07514 6.81377 -0 -5 -0 -4.69883 -32.3342 -10.5827 -0.267553 39.0236 0.377838 -1.06204 -1.53647 -12.2494 1.58956e-016 -5 6.38541e-015 -3.80841 8.35183 -2.6845 5.87975 -4.48666 -11.0149 4.41391e-032 1.59028e-015 -1.59028e-015 17.1531 -15.5699 -18.6071 15.0045 -22.5743 6.33679 -0.0915205 -1.20233 -8.59012 4.41391e-032 1.59028e-015 -1.59028e-015 -4.55401 -3.71503 8.88189 -17.0398 -25.0328 -7.53327 0.083613 -1.16399 8.31428 
79.4452 86.0671 5.96842 5.57398 2.61575 -10.3551 -4.90213 -6.59053 1.33517 0.0961134 23.319 -0.333379 1.77513 -6.42058 8.42942 3.30482e-016 -5 -1.99544e-016 -4.70531 -32.7149 -10.7555 -0.144557 30.4649 0.226986 -0.483361 1.22807 -15.3832 1.11323e-015 -5 -3.1927e-015 -4.34492 7.92373 -2.86926 5.9191 -3.78476 -10.7751 -4.41391e-032 1.59028e-015 1.59028e-015 17.9513 -16.5181 -18.5708 15.089 -22.6793 6.3852 -0.0773267 -1.10397 -7.88352 -4.41391e-032 1.59028e-015 1.59028e-015 -4.45804 -3.1947 8.53412 -16.8571 -24.8187 -7.42345 0.0828414 -1.14307 8.16336 
78.82 85.8954 8.45925 7.02727 2.58857 -11.7615 -6.43345 -3.80077 1.08307 0.0794002 20.7021 -0.274979 1.91134 -6.11001 10.2798 1.83871e-016 -5 3.99088e-016 -5.27584 -32.9883 -10.6156 -0.0772008 24.4546 0.146242 -0.867352 -0.244356 -20.9531 8.34787e-016 -5 9.57811e-015 -5.53211 7.38799 -3.37571 5.73324 -3.13891 -10.7118 3.97569e-016 -1.59028e-015 -1.59028e-015 18.6355 -16.8019 -17.9699 15.4557 -23.1321 6.59656 -0.0619454 -0.986898 -7.04283 3.97569e-016 -1.59028e-015 -1.59028e-015 -4.4314 -2.63565 8.68711 -16.8296 -24.7864 -7.40698 0.0908123 -1.19643 8.54863 
78.1153 85.5356 10.8618 8.42527 2.4712 -13.6466 -7.79707 -1.1558 1.9749 0.0687836 18.5817 -0.242594 2.14764 -6.54813 11.3504 1.3741e-015 -5 -1.99544e-016 -5.0882 -33.6599 -10.5081 -0.0481691 21.764 0.0526043 -1.08796 0.59877 -28.4477 1.0734e-015 -5 3.1927e-015 -6.44077 6.55432 -3.30455 5.18368 -2.83898 -11.5298 1.19271e-015 -1.59028e-015 3.18055e-015 18.7976 -16.6484 -17.4927 15.6654 -23.3884 6.71829 -0.0601397 -0.972246 -6.93767 1.19271e-015 -1.59028e-015 3.18055e-015 -4.67798 -1.95372 9.35335 -16.9273 -24.9009 -7.46565 0.0786202 -1.11309 7.94832 
77.2569 85.1428 13.3152 9.29504 1.87314 -16.5763 -8.88564 1.85485 2.91192 0.0617566 16.811 -0.224766 2.56465 -7.05346 13.0841 1.4561e-015 -5 -3.99088e-016 -4.06465 -34.2859 -12.5024 -0.0447858 22.4423 -0.0310564 -2.96513 -0.125059 -32.7135 -2.78262e-016 -5 -3.1927e-015 -6.74745 6.35478 -2.67107 4.96953 -2.87802 -11.9069 1.59028e-015 0 -0 18.6192 -16.2622 -16.3083 15.86 -23.6254 6.83195 -0.0611983 -0.980546 -6.99754 1.59028e-015 0 -0 -4.99858 -2.04237 8.88884 -16.6162 -24.5341 -7.27922 0.0889444 -1.18472 8.46403 
76.2209 84.8708 15.6923 10.0256 1.29844 -19.754 -9.97251 4.12492 3.17799 0.0617034 16.7097 -0.134755 2.93099 -7.24291 15.1756 -8.94531e-016 -5 -0 -2.49635 -33.3208 -13.3498 -0.0483881 22.5047 -0.00443243 -1.68105 2.79723 -29.0227 1.0734e-015 -5 3.1927e-015 -6.87454 5.9656 -2.51032 4.43922 -3.2568 -11.5742 -0 0 6.36111e-015 18.209 -14.9041 -15.1264 15.9587 -23.7448 6.88967 -0.0709467 -1.05699 -7.54579 -0 0 6.36111e-015 -5.25367 -2.30369 9.1801 -16.5303 -24.432 -7.22808 0.088456 -1.18131 8.43879 
74.7644 84.826 17.9899 9.96499 1.07223 -22.5775 -9.36695 4.59356 4.85798 0.0759848 19.5885 -0.043583 2.76502 -7.67939 14.0134 -4.67135e-016 -5 -7.98176e-016 0.502757 -31.9908 -8.75171 -0.0472478 22.4605 0.0135022 -2.53213 4.08176 -26.112 1.62993e-015 -5 9.57811e-015 -6.15733 5.57392 -2.67037 4.20021 -3.39648 -13.1984 7.95139e-016 -1.59028e-015 3.18055e-015 17.5201 -13.4131 -14.0112 15.9456 -23.7292 6.88209 -0.0616631 -0.984274 -7.02425 7.95139e-016 -1.59028e-015 3.18055e-015 -5.31901 -2.57574 8.45953 -16.5411 -24.4451 -7.23453 0.0808042 -1.12854 8.05972 
72.8798 85.3093 20.2063 9.06002 1.04574 -25.6057 -7.23691 3.31668 6.71477 0.122949 26.2368 0.0530036 2.07725 -6.87826 12.2694 1.05358e-015 -5 -1.59635e-015 3.61064 -28.403 -4.93773 -0.0419313 19.2201 0.0232298 0.936762 6.4682 -26.0287 -7.95139e-016 -5 -0 -4.3407 4.9725 -4.07109 5.17504 -3.99321 -12.844 7.95139e-016 0 3.18055e-015 16.0746 -10.6308 -10.8516 15.6079 -23.3191 6.68486 -0.0810395 -1.13045 -8.07381 7.95139e-016 0 3.18055e-015 -5.42248 -3.16481 8.45044 -16.0169 -23.8176 -6.92435 0.0961202 -1.23197 8.8038 
70.7358 85.661 22.5063 7.24929 1.21972 -30.3396 -3.6048 0.972421 9.74902 0.242424 36.1677 0.145764 0.93385 -4.77249 8.4396 -3.18055e-015 -5 -0 7.67517 -22.5339 -5.58001 -0.0290277 12.281 0.187213 -2.2986 10.7838 -19.5088 -2.34577e-015 -5 9.57811e-015 -1.54572 5.10336 -3.72784 3.67867 -2.96985 -14.5478 -3.97569e-016 0 -1.27222e-014 14.2001 -8.45033 -7.99792 15.0359 -22.6146 6.35482 -0.0741181 -1.0812 -7.71944 -3.97569e-016 0 -1.27222e-014 -5.69879 -4.12921 8.71645 -15.9192 -23.6996 -6.86704 0.105751 -1.29265 9.24055 
68.6813 86.0599 24.8442 6.98976 0.68014 -34.9627 -1.01402 -2.31352 10.9971 0.415378 45.567 0.40956 -0.343731 2.07004 2.66407 -3.18055e-015 -5 -0 9.15614 -17.8668 -4.79392 -0.0224271 8.04994 0.332349 -4.10579 11.7282 -14.1106 -1.98785e-015 -5 -0 -1.21999 4.77351 -2.64991 4.55494 -2.11292 -16.8711 -7.95139e-016 0 -0 12.7938 -6.0995 -7.29376 14.4139 -21.8345 6.0019 -0.0911221 -1.19906 -8.56777 -7.95139e-016 0 -0 -5.6761 -4.11335 10.2647 -16.7185 -24.6549 -7.34025 0.0686472 -1.03932 7.41826 
66.6694 86.0418 26.9534 6.00697 0.784431 -39.4209 2.11211 -6.13099 9.78428 0.667415 53.8173 -0.194492 3.13124 12.3295 -7.57203 -3.04142e-015 -5 1.59635e-015 11.7736 -11.6179 -3.984 -0.0137093 0.0197918 0.65634 -6.03474 14.4212 -10.6104 -1.31201e-015 -5 3.1927e-015 0.0823855 5.33351 -3.20606 5.06728 -1.9441 -18.1786 -7.95139e-016 4.37326e-015 -0 11.5208 -3.99093 -7.36616 14.4336 -21.8593 6.01298 -0.107952 -1.30673 -9.34241 -7.95139e-016 4.37326e-015 -0 -5.8432 -5.26403 13.8667 -17.6981 -25.7941 -7.93302 0.0474403 -0.860968 6.14016 
64.5865 86.2825 29.0653 4.99842 1.17216 -44.8628 4.83009 -10.5265 7.82865 1.02446 61.2395 -0.507386 8.76111 18.6567 -17.1479 -6.36111e-015 -5 -0 13.7077 -9.10946 -3.58669 -0.000927141 -0.000454823 0.380276 -5.00225 12.8219 -5.55656 -1.35166e-015 -5 -6.38541e-015 1.95085 5.60062 -3.14343 5.19765 -2.41385 -19.6428 1.19271e-015 -1.19271e-015 -3.18055e-015 10.675 -3.22944 -9.74104 13.5549 -20.733 5.52479 -0.13171 -1.4435 -10.3311 1.19271e-015 -1.19271e-015 -3.18055e-015 -6.76185 -6.04883 18.6564 -19.3788 -27.6674 -8.98067 0.0219661 -0.576716 4.10997 
62.709 86.3076 31.0408 4.89206 1.00857 -51.7406 5.78225 -13.3703 6.35107 1.38883 66.1141 -0.869694 7.64688 16.304 -15.7527 -6.22198e-015 -5 1.59635e-015 14.3035 -6.72422 -1.93938 -0.00307264 0.0197443 0.269981 -4.07327 11.3364 -1.76845 -1.31201e-015 -5 3.1927e-015 2.45989 5.80992 -1.65751 4.71486 -1.71057 -19.819 -7.95139e-016 -1.39149e-015 -6.36111e-015 9.46341 -2.64258 -9.95192 13.0094 -20.0191 5.22831 -0.202902 -1.79102 -12.856 -7.95139e-016 -1.39149e-015 -6.36111e-015 -7.22325 -7.32456 21.8908 -20.365 -28.7203 -9.61239 0.0196762 -0.544232 3.8781 
60.7815 86.4018 32.9974 5.33094 0.156768 -58.9458 5.35806 -15.4574 5.78045 1.70652 69.0838 -1.32645 3.77926 12.2927 -7.27846 2.78262e-016 -5 3.1927e-015 13.4829 -6.32702 -0.0330566 -0.00560212 4.44044 0.186667 -3.90443 7.63865 2.28524 -2.10715e-015 -5 3.1927e-015 1.5607 6.03062 -0.512052 5.2687 -1.15498 -18.5787 -1.98785e-016 -1.98785e-015 -6.36111e-015 8.53943 -1.68797 -7.72196 13.2145 -20.2891 5.33931 -0.226907 -1.89293 -13.6022 -1.98785e-016 -1.98785e-015 -6.36111e-015 -7.24612 -8.57199 24.7946 -21.0696 -29.4517 -10.0711 0.0153916 -0.476297 3.39427 
58.7161 86.7783 34.8248 6.25837 -1.41901 -66.7788 4.09779 -17.6361 4.70346 1.77927 69.6373 -1.49483 1.60798 9.85248 -0.718854 2.90229e-015 -5 -3.1927e-015 11.5492 -5.73321 2.57032 -0.00986929 7.73299 0.141634 -3.34086 4.63743 5.47499 -7.95139e-016 -5 -0 -0.466418 5.60811 1.26188 5.64551 -0.0459857 -16.2338 -3.97569e-016 -3.27995e-015 -0 7.91006 -0.296089 -7.624 13.6277 -20.8275 5.56487 -0.156226 -1.57238 -11.2643 -3.97569e-016 -3.27995e-015 -0 -6.1742 -10.0766 25.1717 -20.587 -28.9528 -9.75639 0.0473262 -0.859965 6.13404 
56.6217 86.5578 36.211 5.94231 -0.330466 -73.4677 6.55437 -20.8438 4.0344 1.79772 69.8225 -1.61194 1.26006 5.82205 0.483818 2.78262e-016 -5 3.1927e-015 12.7797 -4.99438 4.11137 -0.0134362 9.76948 0.132111 -2.00438 2.82556 8.36374 -2.78262e-016 -5 -3.1927e-015 1.60661 5.72363 3.06215 4.01179 0.0415202 -17.1422 -1.06847e-015 -8.82107e-016 -3.18055e-015 7.59248 -0.760845 -9.48244 13.7013 -20.9228 5.60536 -0.073283 -1.0754 -7.67688 -1.06847e-015 -8.82107e-016 -3.18055e-015 -6.07315 -11.6243 24.7538 -20.4096 -28.7672 -9.64135 0.0484702 -0.870943 6.21214 
54.5031 86.3894 37.761 5.88655 -0.467691 -79.6501 7.92406 -23.4754 4.6063 1.55665 67.7704 -1.47587 1.11848 2.52862 1.29338 -5.16876e-016 -5 3.1927e-015 12.5149 -5.05942 3.98846 -0.0269447 14.2313 0.196314 -1.20722 -0.972305 10.8236 1.31201e-015 -5 -3.1927e-015 2.20748 6.51586 3.63027 3.44655 -0.33191 -16.1423 -3.97569e-016 2.33572e-015 -1.59028e-015 7.58562 -1.14703 -11.4775 13.8878 -21.163 5.7083 -0.071745 -1.06391 -7.59386 -3.97569e-016 2.33572e-015 -1.59028e-015 -6.1707 -12.7897 27.1912 -21.0602 -29.4423 -10.065 0.015207 -0.473764 3.37592 
52.2738 86.1602 39.4166 5.99792 -1.15279 -84.0993 7.56883 -26.4131 3.65029 1.21852 64.0166 -1.22802 1.10843 0.0607686 1.70008 2.72333e-015 -5 1.59635e-015 11.497 -4.49614 3.9822 -0.0378222 16.9733 0.245329 -0.788003 -3.40864 11.573 -1.59028e-015 -5 -0 2.01408 7.16118 3.64556 2.52115 -1.09013 -13.9637 0 1.2424e-015 -0 8.00182 -1.69654 -11.9055 14.1455 -21.4934 5.85165 -0.0899872 -1.19236 -8.51882 0 1.2424e-015 -0 -6.08145 -13.4307 28.2942 -21.88 -30.2724 -10.6059 0.00907081 -0.355626 2.53395 
